<svg xmlns="http://www.w3.org/2000/svg" width="48" height="47.996" viewBox="0 0 48 47.996">
  <g id="manual-voting" transform="translate(0 -0.002)">
    <g id="Group_10121" data-name="Group 10121" transform="translate(0 45.998)">
      <g id="Group_10120" data-name="Group 10120">
        <path id="Path_3738" data-name="Path 3738" d="M35,25H1a1,1,0,1,1,0-2H35a1,1,0,1,1,0,2Z" transform="translate(0 -23)" fill="#050708"/>
      </g>
    </g>
    <g id="Group_10123" data-name="Group 10123" transform="translate(28.691 0.002)">
      <g id="Group_10122" data-name="Group 10122">
        <path id="Path_3739" data-name="Path 3739" d="M28.391,19.374h-.01a2.986,2.986,0,0,1-2.124-.89L15.209,7.31a3.006,3.006,0,0,1,.014-4.23l2.2-2.2a3,3,0,0,1,4.242,0L32.777,11.99a3,3,0,0,1,0,4.244L30.513,18.5A2.992,2.992,0,0,1,28.391,19.374ZM19.543,2a1,1,0,0,0-.708.292l-2.2,2.2a1,1,0,0,0-.006,1.41L27.677,17.074a.991.991,0,0,0,.708.3,1.433,1.433,0,0,0,.71-.294l2.264-2.262a1,1,0,0,0,0-1.416L20.247,2.288a1,1,0,0,0-.7-.29ZM15.931,3.784h.02Z" transform="translate(-14.345 -0.002)" fill="#050708"/>
      </g>
    </g>
    <g id="Group_10125" data-name="Group 10125" transform="translate(10.228 6.106)">
      <g id="Group_10124" data-name="Group 10124">
        <path id="Path_3740" data-name="Path 3740" d="M6.594,22.118a1,1,0,0,1-.958-.712,12.308,12.308,0,0,1-.522-3.548,12.56,12.56,0,0,1,1.3-5.522,12.413,12.413,0,0,1,8.052-6.468l10.94-2.78A1,1,0,1,1,25.9,5.024L14.96,7.8a10.416,10.416,0,0,0-6.752,5.422,10.528,10.528,0,0,0-1.094,4.632,10.333,10.333,0,0,0,.436,2.974,1,1,0,0,1-.67,1.246,1.1,1.1,0,0,1-.286.04Z" transform="translate(-5.114 -3.054)" fill="#050708"/>
      </g>
    </g>
    <g id="Group_10127" data-name="Group 10127" transform="translate(17.766 16.231)">
      <g id="Group_10126" data-name="Group 10126">
        <path id="Path_3741" data-name="Path 3741" d="M13.585,30.868A4.488,4.488,0,0,1,9.7,28.654a4.653,4.653,0,0,1,.826-5.64l7.062-7.074a4.181,4.181,0,0,0-6.834.614,1,1,0,0,1-1.74-.992A6.183,6.183,0,0,1,19.4,15.018l.312.434a1,1,0,0,1-.088,1.274l-7.688,7.7a2.689,2.689,0,0,0-.524,3.2,2.606,2.606,0,0,0,3.982.49l8.684-8.82L31.041,8.572A1,1,0,1,1,32.715,9.66L25.7,20.474a.964.964,0,0,1-.126.16l-8.758,8.9a4.521,4.521,0,0,1-3.228,1.338Z" transform="translate(-8.883 -8.116)" fill="#050708"/>
      </g>
    </g>
    <g id="Group_10129" data-name="Group 10129" transform="translate(4 23.998)">
      <g id="Group_10128" data-name="Group 10128">
        <path id="Path_3742" data-name="Path 3742" d="M29.034,36H3a1,1,0,0,1-1-1V13a1,1,0,0,1,1-1H24.942a1,1,0,0,1,0,2H4V34H28.034V18.8a1,1,0,1,1,2,0V35A1,1,0,0,1,29.034,36Z" transform="translate(-2 -12)" fill="#050708"/>
      </g>
    </g>
  </g>
</svg>
