<svg xmlns="http://www.w3.org/2000/svg" width="64" height="83.005" viewBox="0 0 64 83.005">
  <g id="Group_10141" data-name="Group 10141" transform="translate(-928 -2317)">
    <g id="choice" transform="translate(869.386 2317)">
      <path id="Path_3729" data-name="Path 3729" d="M303.712,0H288.689a6.361,6.361,0,0,0-6.354,6.354V21.377a6.361,6.361,0,0,0,6.354,6.354h15.023a6.361,6.361,0,0,0,6.354-6.354V6.354A6.361,6.361,0,0,0,303.712,0ZM305.2,21.377a1.492,1.492,0,0,1-1.491,1.49H288.689a1.492,1.492,0,0,1-1.49-1.49V6.354a1.492,1.492,0,0,1,1.49-1.49h15.023a1.492,1.492,0,0,1,1.491,1.49Z" transform="translate(-187.451 0)"/>
      <path id="Path_3730" data-name="Path 3730" d="M104.623,33.8a6.89,6.89,0,0,0-3.233.8A6.927,6.927,0,0,0,92.2,32.41,6.933,6.933,0,0,0,84.545,29.9V27.73h.578a6.361,6.361,0,0,0,6.354-6.354V6.354A6.361,6.361,0,0,0,85.123,0H70.1a6.361,6.361,0,0,0-6.354,6.354V21.377A6.361,6.361,0,0,0,70.1,27.731h.578V42.8a6.978,6.978,0,0,0-1.262-1,6.883,6.883,0,0,0-4.963-.92,5.924,5.924,0,0,0-5.659,7.481l3.2,13.677c1.823,11.411,10.724,19.948,11.1,20.307A2.432,2.432,0,0,0,74.765,83h27.351a2.432,2.432,0,0,0,2.032-1.1,44.931,44.931,0,0,0,7.407-24.742l0-16.431h0A6.942,6.942,0,0,0,104.623,33.8ZM75.786,78.141c-1.96-2.085-7.736-8.817-9.006-16.952q-.014-.09-.035-.178L63.529,47.249a1.3,1.3,0,0,1,.152-1.115,1.423,1.423,0,0,1,1.027-.439c.237-.023.335-.051.553-.064a2.658,2.658,0,0,1,1.587.295,2.056,2.056,0,0,1,.923,1.287l2.774,11.871a2.432,2.432,0,0,0,2.066,1.86l.195.024a2.432,2.432,0,0,0,2.734-2.413V19.907a2.07,2.07,0,0,1,4.141,0v22.8a2.432,2.432,0,1,0,4.864,0v-6.2a2.07,2.07,0,0,1,4.14,0v6.474a2.432,2.432,0,1,0,4.864,0V38.442a2.07,2.07,0,1,1,4.14,0v6.244a2.432,2.432,0,1,0,4.864,0v-3.95a2.07,2.07,0,0,1,4.141,0l0,16.431a40.071,40.071,0,0,1-5.912,20.975H75.786ZM68.61,21.377V6.354a1.492,1.492,0,0,1,1.49-1.49H85.123a1.492,1.492,0,0,1,1.49,1.49V21.377a1.492,1.492,0,0,1-1.49,1.49h-.578v-2.96a6.934,6.934,0,0,0-13.868,0v2.96H70.1A1.492,1.492,0,0,1,68.61,21.377Z" transform="translate(0 0)"/>
    </g>
  </g>
</svg>
