<svg xmlns="http://www.w3.org/2000/svg" width="48" height="47.998" viewBox="0 0 48 47.998">
  <g id="rocket" transform="translate(0 -0.001)">
    <path id="Path_3733" data-name="Path 3733" d="M18.789,38.131a1,1,0,0,1-.708-.292L5.227,24.985a1,1,0,0,1-.04-1.374l9.634-10.792C21.555,4.941,32.521-.157,42.083,0a1,1,0,0,1,.976.976c.222,9.568-4.934,20.528-12.832,27.276l-10.774,9.62A.99.99,0,0,1,18.789,38.131ZM7.309,24.239,18.827,35.757l10.086-9c7.212-6.164,12-15.988,12.15-24.75C32.3,2.149,22.479,6.939,16.327,14.135Z" transform="translate(4.934 0)" fill="#050708"/>
    <path id="Path_3734" data-name="Path 3734" d="M14.964,32.282a.928.928,0,0,1-.286-.044.989.989,0,0,1-.708-.772L12.6,21.892a1,1,0,1,1,1.98-.284l1.072,7.48A23.35,23.35,0,0,0,21.1,14.17a1,1,0,0,1,2,0,25.328,25.328,0,0,1-7.364,17.79A1.124,1.124,0,0,1,14.964,32.282Z" transform="translate(12.588 13.169)" fill="#050708"/>
    <path id="Path_3735" data-name="Path 3735" d="M11.828,16.669a.863.863,0,0,1-.142-.01L2.112,15.287a1,1,0,0,1-.56-1.7,25.385,25.385,0,0,1,17.856-7.43,1,1,0,0,1,0,2A23.344,23.344,0,0,0,4.48,13.605l7.49,1.074a1,1,0,0,1-.142,1.99Z" transform="translate(1.254 6.154)" fill="#050708"/>
    <path id="Path_3736" data-name="Path 3736" d="M19.632,14.364A5,5,0,1,1,23.168,12.9,4.985,4.985,0,0,1,19.632,14.364Zm0-8a3,3,0,1,0,2.122.876,2.993,2.993,0,0,0-2.122-.876ZM22.46,12.2h.02Z" transform="translate(14.635 4.367)" fill="#050708"/>
    <path id="Path_3737" data-name="Path 3737" d="M1,32a1,1,0,0,1-.958-1.286C.37,29.618,3.308,19.95,5.448,17.81a6.182,6.182,0,0,1,8.742,8.742c-2.14,2.14-11.808,5.078-12.9,5.406A1.1,1.1,0,0,1,1,32ZM9.82,18a4.175,4.175,0,0,0-2.958,1.222C5.708,20.378,3.788,25.54,2.52,29.478c3.936-1.268,9.1-3.188,10.254-4.342A4.179,4.179,0,0,0,9.82,18Z" transform="translate(0 16.001)" fill="#050708"/>
  </g>
</svg>
