<svg id="brake" xmlns="http://www.w3.org/2000/svg" width="85.149" height="85.149" viewBox="0 0 85.149 85.149">
  <g id="Group_10024" data-name="Group 10024" transform="translate(0)">
    <path id="Path_862" data-name="Path 862" d="M108,166.537a21.553,21.553,0,0,0,27.458,20.712,1.247,1.247,0,0,0-.685-2.4,19.068,19.068,0,1,1,4.568-1.986A1.247,1.247,0,0,0,140.627,185,21.538,21.538,0,1,0,108,166.537Z" transform="translate(-90.039 -120.885)" fill="#e26941"/>
    <path id="Path_863" data-name="Path 863" d="M171.839,192.477a16.362,16.362,0,1,0-16.362,16.362A16.381,16.381,0,0,0,171.839,192.477Zm-16.362,13.868a13.868,13.868,0,1,1,13.868-13.868A13.883,13.883,0,0,1,155.477,206.345Z" transform="translate(-115.979 -146.826)" fill="#e26941"/>
    <path id="Path_864" data-name="Path 864" d="M214.8,111.139v-.665a1.247,1.247,0,1,0-2.495,0v.665a1.247,1.247,0,0,0,2.495,0Z" transform="translate(-177 -91.061)" fill="#e26941"/>
    <path id="Path_865" data-name="Path 865" d="M212.308,422.021v.665a1.247,1.247,0,1,0,2.495,0v-.665a1.247,1.247,0,1,0-2.495,0Z" transform="translate(-177 -350.796)" fill="#e26941"/>
    <path id="Path_866" data-name="Path 866" d="M247.692,462.944v.665a1.247,1.247,0,0,0,2.495,0v-.665a1.247,1.247,0,1,0-2.495,0Z" transform="translate(-206.499 -384.913)" fill="#e26941"/>
    <path id="Path_867" data-name="Path 867" d="M104.139,114.354a1.247,1.247,0,1,0-1.764,1.764l.47.47a1.247,1.247,0,1,0,1.764-1.764Z" transform="translate(-85.045 -95.032)" fill="#e26941"/>
    <path id="Path_868" data-name="Path 868" d="M108.055,168.313a1.247,1.247,0,1,0-1.764,1.764l.47.47a1.247,1.247,0,0,0,1.764-1.764Z" transform="translate(-88.31 -140.017)" fill="#e26941"/>
    <path id="Path_869" data-name="Path 869" d="M326.59,388.611a1.247,1.247,0,0,0,0,1.764l.47.471a1.247,1.247,0,0,0,1.764-1.764l-.47-.47a1.248,1.248,0,0,0-1.764,0Z" transform="translate(-271.971 -323.677)" fill="#e26941"/>
    <path id="Path_870" data-name="Path 870" d="M380.548,394.291l.47.47A1.247,1.247,0,1,0,382.782,393l-.47-.47a1.247,1.247,0,0,0-1.764,1.764Z" transform="translate(-316.955 -326.943)" fill="#e26941"/>
    <path id="Path_871" data-name="Path 871" d="M32.549,251.8h.665a1.247,1.247,0,1,0,0-2.495h-.665a1.247,1.247,0,0,0,0,2.495Z" transform="translate(-26.096 -207.846)" fill="#e26941"/>
    <path id="Path_872" data-name="Path 872" d="M74.139,284.692h-.665a1.247,1.247,0,1,0,0,2.495h.665a1.247,1.247,0,1,0,0-2.495Z" transform="translate(-60.214 -237.346)" fill="#e26941"/>
    <path id="Path_873" data-name="Path 873" d="M385.687,287.187a1.247,1.247,0,1,0,0-2.495h-.665a1.247,1.247,0,1,0,0,2.495Z" transform="translate(-319.95 -237.346)" fill="#e26941"/>
    <path id="Path_874" data-name="Path 874" d="M77.825,392.528l-.47.47a1.247,1.247,0,0,0,1.764,1.764l.47-.47a1.247,1.247,0,0,0-1.764-1.764Z" transform="translate(-64.185 -326.943)" fill="#e26941"/>
    <path id="Path_875" data-name="Path 875" d="M131.783,388.61l-.47.47a1.247,1.247,0,0,0,1.764,1.764l.47-.471a1.247,1.247,0,0,0-1.764-1.764Z" transform="translate(-109.169 -323.677)" fill="#e26941"/>
    <path id="Path_876" data-name="Path 876" d="M353.375,170.548l.47-.47a1.247,1.247,0,0,0-1.764-1.764l-.47.47a1.247,1.247,0,0,0,1.764,1.764Z" transform="translate(-292.831 -140.017)" fill="#e26941"/>
    <path id="Path_877" data-name="Path 877" d="M70.772,13.906A47.756,47.756,0,0,0,57.265,4.554a1.247,1.247,0,1,0-1.049,2.263c.408.189.812.386,1.213.587l-.007.007a4.521,4.521,0,0,0,0,6.386l13.041,13.04a4.521,4.521,0,0,0,6.386,0l.326-.326a45.533,45.533,0,0,1,5.48,21.769v4.038a1.234,1.234,0,0,1-1.233,1.232H73.346a1.234,1.234,0,0,1-1.232-1.232V48.281A35.285,35.285,0,0,0,36.869,13.035H32.831A1.234,1.234,0,0,1,31.6,11.8V3.727a1.234,1.234,0,0,1,1.233-1.232h3.677a46.966,46.966,0,0,1,14.9,2.415,1.247,1.247,0,1,0,.79-2.366A49.444,49.444,0,0,0,36.508,0H32.831A3.731,3.731,0,0,0,29.1,3.727V7.536A39.774,39.774,0,0,0,5.519,25.5a1.247,1.247,0,1,0,2.145,1.274A37.275,37.275,0,0,1,29.1,10.131V11.8a3.731,3.731,0,0,0,3.727,3.727h4.038A32.788,32.788,0,0,1,69.619,48.281v4.038a3.731,3.731,0,0,0,3.727,3.727H75.02A37.226,37.226,0,0,1,62.5,74.639a37,37,0,0,1-60-28.988A36.78,36.78,0,0,1,5.353,31.365a1.247,1.247,0,1,0-2.3-.964A39.508,39.508,0,0,0,39.5,85.149a39.082,39.082,0,0,0,24.553-8.557,39.717,39.717,0,0,0,13.56-20.547h3.811a3.731,3.731,0,0,0,3.727-3.727V48.281A47.945,47.945,0,0,0,70.772,13.906Zm4.313,11.168a2.023,2.023,0,0,1-2.858,0L59.186,12.033a2.021,2.021,0,0,1,0-2.858l.543-.543a45.116,45.116,0,0,1,9.291,7.049,46.18,46.18,0,0,1,6.859,8.6Z" transform="translate(0 0)" fill="#e26941"/>
    <path id="Path_878" data-name="Path 878" d="M204.5,28.242a3.742,3.742,0,1,0,3.742-3.742A3.746,3.746,0,0,0,204.5,28.242Zm4.989,0a1.247,1.247,0,1,1-1.247-1.247A1.249,1.249,0,0,1,209.489,28.242Z" transform="translate(-170.49 -20.425)" fill="#e26941"/>
    <path id="Path_879" data-name="Path 879" d="M450.984,272.242a3.742,3.742,0,1,0-3.742,3.742A3.746,3.746,0,0,0,450.984,272.242Zm-4.989,0a1.247,1.247,0,1,1,1.247,1.247A1.249,1.249,0,0,1,445.995,272.242Z" transform="translate(-369.743 -223.847)" fill="#e26941"/>
  </g>
</svg>
