<svg id="air-filter" xmlns="http://www.w3.org/2000/svg" width="76.015" height="82.984" viewBox="0 0 76.015 82.984">
  <path id="Path_880" data-name="Path 880" d="M95.651,57.43h-1.4l-.611-6.172a1.216,1.216,0,1,0-2.419.239L91.8,57.43H85.738L83.157,9.887H87.1L90.7,46.31a1.216,1.216,0,1,0,2.419-.239L89.533,9.785a1.866,1.866,0,0,0,1.261-1.762V1.864A1.866,1.866,0,0,0,88.93,0H44.359a1.216,1.216,0,0,0,0,2.431h44V7.456H30.652V2.431h8.538a1.216,1.216,0,1,0,0-2.431h-9.1a1.866,1.866,0,0,0-1.864,1.864V8.023a1.866,1.866,0,0,0,1.261,1.762L24.767,57.43h-1.4A1.866,1.866,0,0,0,21.5,59.294v6.159a1.866,1.866,0,0,0,1.864,1.864h4.857v3.262a4.2,4.2,0,0,0,4.194,4.194h6.334a1.216,1.216,0,1,0,0-2.431H32.415a1.765,1.765,0,0,1-1.763-1.763V67.317H88.363v3.261A1.765,1.765,0,0,1,86.6,72.341H43.96a1.216,1.216,0,1,0,0,2.431H48.3v7a1.216,1.216,0,0,0,1.216,1.216H69.5a1.216,1.216,0,0,0,1.216-1.216v-7H86.6a4.2,4.2,0,0,0,4.194-4.194V67.316h4.857a1.866,1.866,0,0,0,1.864-1.864V59.294A1.866,1.866,0,0,0,95.651,57.43ZM68.287,80.553H50.728V74.772H68.287v5.781ZM43.337,9.887,41.615,57.43h-5.9L38.293,9.887ZM69.061,57.43,68.2,9.887h5.045L74.967,57.43Zm-2.432,0H60.723V9.887h5.046Zm-8.338,0H52.385l.861-47.543h5.046Zm-8.338,0H44.048L45.769,9.887h5.045Zm33.35,0H77.4L75.678,9.887h5.044ZM31.915,9.887h3.944L33.276,57.43H27.21Zm63.169,55H23.931V59.861h1.5a1.213,1.213,0,0,0,.432.081h67.3a1.213,1.213,0,0,0,.432-.081h1.5Z" transform="translate(-21.5 0)" fill="#117dae"/>
</svg>
