<svg xmlns="http://www.w3.org/2000/svg" width="59.5" height="87.792" viewBox="0 0 59.5 87.792">
  <g id="transmission" transform="translate(-82.5)">
    <g id="Group_10023" data-name="Group 10023" transform="translate(82.5 0)">
      <path id="Path_860" data-name="Path 860" d="M128.4,37.552H118.68V25.27a13.5,13.5,0,0,0,5.7-5.973,1.286,1.286,0,0,0-2.317-1.117,10.888,10.888,0,0,1-20.423-7.168,8.053,8.053,0,0,0,.278.809c1.89,4.648,5.944,7.651,10.33,7.651,4.462,0,8.547-3.078,10.406-7.841.077-.2.145-.4.206-.6a10.875,10.875,0,0,1,.277,2.431,1.286,1.286,0,0,0,2.572,0,13.46,13.46,0,1,0-19.89,11.822v3.5a1.286,1.286,0,1,0,2.572,0v-2.43a13.343,13.343,0,0,0,7.716-.008V47.185a3.858,3.858,0,1,1-7.716,0V34.272a1.286,1.286,0,1,0-2.572,0v3.28H96.1a13.611,13.611,0,0,0-13.6,13.6V74.2a13.611,13.611,0,0,0,13.6,13.6H128.4A13.611,13.611,0,0,0,142,74.2V51.148a13.611,13.611,0,0,0-13.6-13.6ZM118.581,4.61A5.3,5.3,0,0,1,120.26,10.7c-1.471,3.769-4.615,6.2-8.01,6.2s-6.43-2.317-7.947-6.047A5.38,5.38,0,0,1,106.075,4.5a10.854,10.854,0,0,1,12.506.112Zm7.462,38.641a3.1,3.1,0,0,1,3.1,3.1V66.191a3.1,3.1,0,0,1-3.1,3.1H98.457a3.1,3.1,0,0,1-3.1-3.1V46.35a3.1,3.1,0,0,1,3.1-3.1h1.08V57.027a5.04,5.04,0,0,0,5.034,5.034h15.357a5.04,5.04,0,0,0,5.034-5.034V43.252ZM105.82,40.124v7.061a6.43,6.43,0,0,0,12.86,0V40.124h1.248a2.465,2.465,0,0,1,2.462,2.462V57.027a2.465,2.465,0,0,1-2.462,2.462H104.572a2.465,2.465,0,0,1-2.462-2.462V42.586a2.465,2.465,0,0,1,2.462-2.462ZM139.428,74.2A11.036,11.036,0,0,1,128.4,85.22H96.1A11.036,11.036,0,0,1,85.072,74.2V51.148A11.036,11.036,0,0,1,96.1,40.124h4.087a5.014,5.014,0,0,0-.27.556H98.457a5.663,5.663,0,0,0-4.562,2.31,8.474,8.474,0,0,0-6.25,8.158V74.2A8.461,8.461,0,0,0,96.1,82.648h21.812a1.286,1.286,0,0,0,0-2.572H96.1a5.886,5.886,0,0,1-5.88-5.88V51.148a5.9,5.9,0,0,1,2.574-4.859c0,.021,0,.041,0,.062V66.191a5.676,5.676,0,0,0,5.669,5.671h27.586a5.676,5.676,0,0,0,5.669-5.671V46.35c0-.021,0-.041,0-.062a5.9,5.9,0,0,1,2.574,4.859V74.2a5.886,5.886,0,0,1-5.88,5.88h-5.092a1.286,1.286,0,1,0,0,2.572H128.4a8.461,8.461,0,0,0,8.452-8.452V51.148a8.474,8.474,0,0,0-6.25-8.158,5.663,5.663,0,0,0-4.562-2.31h-1.456a5.018,5.018,0,0,0-.27-.556H128.4a11.036,11.036,0,0,1,11.024,11.024V74.2Z" transform="translate(-82.5 0)" fill="#f3a329"/>
      <path id="Path_861" data-name="Path 861" d="M224.786,39.81a1.286,1.286,0,0,0,1.286-1.286v-.583h1.715v.583a1.286,1.286,0,1,0,2.572,0v-.583h1.715v.583a1.286,1.286,0,1,0,2.572,0V34.786a1.286,1.286,0,1,0-2.572,0v.583h-1.715v-.583a1.286,1.286,0,1,0-2.572,0v.583h-1.715v-.583a1.286,1.286,0,1,0-2.572,0v3.738A1.286,1.286,0,0,0,224.786,39.81Z" transform="translate(-199.323 -27.756)" fill="#f3a329"/>
    </g>
  </g>
</svg>
