<svg xmlns="http://www.w3.org/2000/svg" width="117.598" height="56.961" viewBox="0 0 117.598 56.961">
  <g id="bumper" transform="translate(0 -132)">
    <g id="Group_10026" data-name="Group 10026" transform="translate(0 132)">
      <path id="Path_888" data-name="Path 888" d="M104.046,216.988H91.5a2.644,2.644,0,0,0-2.616-2.3h-.8v-2.866c5.22-.35,9.882-.746,13.753-1.115a1.723,1.723,0,1,0-.327-3.43c-10.18.971-25.861,2.128-42.755,2.128a466.949,466.949,0,0,1-52.875-3.219,2.765,2.765,0,0,1-2.433-2.743V186.5A1.723,1.723,0,1,0,0,186.5v16.941a6.212,6.212,0,0,0,5.468,6.164c4.464.537,12.963,1.465,23.663,2.192v2.889h-.42a2.644,2.644,0,0,0-2.616,2.3H13.551a5.173,5.173,0,0,0-5.168,5.168,5.174,5.174,0,0,0,5.168,5.168H26.094a2.644,2.644,0,0,0,2.616,2.3H40.654a2.644,2.644,0,0,0,2.616-2.3h8.2a1.723,1.723,0,1,0,0-3.445H43.3v-3.445H74.3v3.445H58.8a1.723,1.723,0,1,0,0,3.445H74.327a2.644,2.644,0,0,0,2.616,2.3H88.887a2.644,2.644,0,0,0,2.616-2.3h12.543a5.173,5.173,0,0,0,5.168-5.168,5.174,5.174,0,0,0-5.168-5.168Zm-19.408-2.3H81.193v-2.453q1.754-.093,3.445-.194Zm-6.89-2.284v2.284h-.8a2.644,2.644,0,0,0-2.616,2.3H43.27a2.644,2.644,0,0,0-2.616-2.3H39.466v-2.3c6.08.281,12.591.461,19.288.461C65.355,212.853,71.768,212.678,77.748,212.406Zm-45.172-.383q1.692.1,3.445.2v2.471H32.576ZM11.829,222.156a1.728,1.728,0,0,1,1.723-1.723H26.069v3.445H13.551A1.724,1.724,0,0,1,11.829,222.156Zm28.021,4.019H29.514v-8.039H39.85Zm48.233,0H77.748v-8.039H88.083Zm17.177-2.8a1.7,1.7,0,0,1-1.214.5H91.529v-3.445h12.518a1.724,1.724,0,0,1,1.723,1.723A1.706,1.706,0,0,1,105.261,223.374Z" transform="translate(0 -172.659)" fill="#1a4079"/>
      <path id="Path_889" data-name="Path 889" d="M112.357,132H99.437a5.275,5.275,0,0,0-3.717,1.546l-5.5,5.533a1.808,1.808,0,0,1-1.274.53H28.65a1.808,1.808,0,0,1-1.274-.53l-5.5-5.533A5.274,5.274,0,0,0,18.16,132H5.24A5.246,5.246,0,0,0,0,137.24v1.138a1.723,1.723,0,0,0,3.445,0V137.24a1.8,1.8,0,0,1,1.8-1.8H18.16a1.806,1.806,0,0,1,1.273.53l5.5,5.533a5.276,5.276,0,0,0,3.717,1.546h4.424V148.2a4.043,4.043,0,0,0,4.039,4.039H80.485a4.043,4.043,0,0,0,4.039-4.039v-5.142h4.424a5.277,5.277,0,0,0,3.717-1.546l5.5-5.534a1.807,1.807,0,0,1,1.273-.53h12.92a1.8,1.8,0,0,1,1.8,1.8v25.545a2.765,2.765,0,0,1-2.435,2.743c-.841.1-1.807.213-2.887.334a1.723,1.723,0,1,0,.384,3.424c1.09-.122,2.065-.236,2.914-.338a6.212,6.212,0,0,0,5.469-6.164V137.24a5.246,5.246,0,0,0-5.241-5.24ZM81.079,148.2a.594.594,0,0,1-.594.594H37.113a.594.594,0,0,1-.594-.594v-5.142h44.56V148.2Z" transform="translate(0 -132)" fill="#1a4079"/>
      <path id="Path_890" data-name="Path 890" d="M50.416,211.251a5.168,5.168,0,0,0,0-10.336H42.607a5.168,5.168,0,0,0,0,10.336Zm-9.532-5.168a1.724,1.724,0,0,1,1.723-1.723h7.809a1.723,1.723,0,1,1,0,3.445H42.607A1.725,1.725,0,0,1,40.884,206.083Z" transform="translate(-28.84 -185.086)" fill="#1a4079"/>
      <path id="Path_891" data-name="Path 891" d="M406.484,211.251a5.168,5.168,0,0,0,0-10.336h-7.809a5.168,5.168,0,0,0,0,10.336Zm-9.532-5.168a1.724,1.724,0,0,1,1.723-1.723h7.809a1.723,1.723,0,1,1,0,3.445h-7.809A1.724,1.724,0,0,1,396.952,206.083Z" transform="translate(-303.125 -185.086)" fill="#1a4079"/>
    </g>
  </g>
</svg>
