<svg id="car-door" xmlns="http://www.w3.org/2000/svg" width="82.984" height="73.746" viewBox="0 0 82.984 73.746">
  <g id="Group_10025" data-name="Group 10025" transform="translate(0 0)">
    <path id="Path_881" data-name="Path 881" d="M81.769,295.829a1.215,1.215,0,0,0-1.216,1.216V308.2a2.583,2.583,0,0,1-2.587,2.573H5.018A2.583,2.583,0,0,1,2.431,308.2V281.485a1.216,1.216,0,1,0-2.431,0V308.2a5.017,5.017,0,0,0,5.018,5H77.967a5.017,5.017,0,0,0,5.018-5v-11.16A1.216,1.216,0,0,0,81.769,295.829Z" transform="translate(0 -239.463)" fill="#199ed9"/>
    <path id="Path_882" data-name="Path 882" d="M77.7,28.5H31.043a7.7,7.7,0,0,0-5.761,2.592L2.6,56.728A10.333,10.333,0,0,0,0,63.58v1.793a1.216,1.216,0,0,0,2.431,0V63.58a7.9,7.9,0,0,1,1.988-5.241L27.1,32.7a5.263,5.263,0,0,1,3.94-1.772H77.7a2.851,2.851,0,0,1,2.855,2.841V80.845a1.216,1.216,0,1,0,2.431,0V33.772A5.285,5.285,0,0,0,77.7,28.5Z" transform="translate(0 -28.5)" fill="#199ed9"/>
    <path id="Path_883" data-name="Path 883" d="M70.967,61.063a.4.4,0,0,1,.3-.132h30.871a1.216,1.216,0,1,0,0-2.431H71.266a2.83,2.83,0,0,0-2.119.952L48.619,82.65a2.436,2.436,0,0,0,1.825,4.05h65.133a2.771,2.771,0,0,0,2.768-2.768V61.268a2.771,2.771,0,0,0-2.768-2.768h-7.767a1.216,1.216,0,1,0,0,2.431h7.767a.337.337,0,0,1,.337.337V83.933a.337.337,0,0,1-.337.337l-65.133.006s-.008-.013,0-.013Z" transform="translate(-40.222 -53.638)" fill="#199ed9"/>
    <path id="Path_884" data-name="Path 884" d="M352.6,280.007a2.465,2.465,0,0,0-2.462-2.462h-9.176a2.465,2.465,0,0,0-2.462,2.462v1.521a3.638,3.638,0,0,0,3.634,3.634h6.832a3.638,3.638,0,0,0,3.634-3.634v-1.521Zm-2.431,1.521a1.2,1.2,0,0,1-1.2,1.2h-6.832a1.2,1.2,0,0,1-1.2-1.2v-1.521a.031.031,0,0,1,.031-.031h9.176a.031.031,0,0,1,.031.031v1.521Z" transform="translate(-283.637 -237.18)" fill="#199ed9"/>
    <path id="Path_885" data-name="Path 885" d="M383.147,340a3.647,3.647,0,1,0,3.647,3.647A3.651,3.651,0,0,0,383.147,340Zm0,4.862a1.216,1.216,0,1,1,1.216-1.216A1.217,1.217,0,0,1,383.147,344.862Z" transform="translate(-317.991 -289.513)" fill="#199ed9"/>
    <path id="Path_886" data-name="Path 886" d="M48.016,425.9a1.216,1.216,0,0,0,1.216,1.216H113.2a1.216,1.216,0,0,0,0-2.431H49.232a1.216,1.216,0,0,0-1.216,1.216Z" transform="translate(-40.234 -360.468)" fill="#199ed9"/>
  </g>
</svg>
