<svg xmlns="http://www.w3.org/2000/svg" width="96.293" height="67.33" viewBox="0 0 96.293 67.33">
  <g id="car-engine" transform="translate(0 -77)">
    <g id="Group_10022" data-name="Group 10022" transform="translate(0 77)">
      <path id="Path_858" data-name="Path 858" d="M94.882,118.128a1.41,1.41,0,0,0,1.411-1.411v-6.5a4.42,4.42,0,1,0-8.839,0v1.563H84.162v-4.873a3.936,3.936,0,0,0-1.416-3.029L67.2,90.893a3.944,3.944,0,0,0-2.525-.916H50.113V85.84H60.175a4.42,4.42,0,0,0,0-8.84H42.085a1.411,1.411,0,1,0,0,2.821h18.09a1.6,1.6,0,1,1,0,3.2H31.588a1.6,1.6,0,1,1,0-3.2h4.479a1.411,1.411,0,1,0,0-2.821H31.588a4.42,4.42,0,1,0,0,8.839H41.65v4.138H25.573a3.924,3.924,0,0,0-2.213.681l-9.5,6.456a3.943,3.943,0,0,0-1.728,3.265v8.907H8.839V99.663a4.42,4.42,0,1,0-8.839,0V128.25a4.42,4.42,0,0,0,8.839,0v-10.5h3.291v8.715a3.924,3.924,0,0,0,2.18,3.53l27.843,13.921a3.956,3.956,0,0,0,1.761.416h4.231a1.411,1.411,0,0,0,0-2.821H43.915a1.122,1.122,0,0,1-.5-.118L15.572,127.469a1.119,1.119,0,0,1-.621-1.007V100.378a1.125,1.125,0,0,1,.492-.931l9.5-6.456a1.112,1.112,0,0,1,.628-.193h39.1a1.12,1.12,0,0,1,.717.26l15.547,12.986a1.122,1.122,0,0,1,.4.864v33.476a1.124,1.124,0,0,1-1.12,1.124H54.179a1.411,1.411,0,1,0,0,2.821H80.221a3.948,3.948,0,0,0,3.941-3.946v-3.141h3.291v1.563a4.42,4.42,0,0,0,8.839,0v-16.07a1.411,1.411,0,0,0-2.821,0v16.07a1.6,1.6,0,0,1-3.2,0V110.218a1.6,1.6,0,0,1,3.2,0v6.5A1.41,1.41,0,0,0,94.882,118.128ZM6.018,128.25a1.6,1.6,0,1,1-3.2,0V99.663a1.6,1.6,0,1,1,3.2,0Zm2.821-13.323v-2.821h3.291v2.821Zm35.631-24.95V85.839h2.821v4.138Zm39.692,44.445V114.6h3.291v19.82H84.162Z" transform="translate(0 -77)" fill="#f5c53e"/>
      <path id="Path_859" data-name="Path 859" d="M208.328,235.416a2.037,2.037,0,0,0,2.375.051L225.03,225.8a2.058,2.058,0,0,0,.356-3.107l-3.909-4.208,2.9-8.495a2.058,2.058,0,0,0-3.145-2.339h0l-13.559,9.7a2.058,2.058,0,0,0-.281,3.106l3.1,3.195-2.9,9.511A2.035,2.035,0,0,0,208.328,235.416Zm1.7-16.288,10.906-7.8L218.659,218a2.056,2.056,0,0,0,.44,2.065l3.613,3.889-11.8,7.967,2.4-7.881a2.059,2.059,0,0,0-.49-2.034Z" transform="translate(-167.914 -182.764)" fill="#f5c53e"/>
    </g>
  </g>
</svg>
