<svg xmlns="http://www.w3.org/2000/svg" width="107.219" height="67.849" viewBox="0 0 107.219 67.849">
  <g id="exhaust-pipe" transform="translate(0)">
    <path id="Path_887" data-name="Path 887" d="M105.1,105.094H91.3v-4.182a3.776,3.776,0,0,0-3.772-3.771H83.974v-.23A2.915,2.915,0,0,0,81.062,94h-3.6a2.915,2.915,0,0,0-2.912,2.912v.23H66.9a1.571,1.571,0,1,0,0,3.141h7.651v34.553H38.636V100.282H60.2a1.571,1.571,0,1,0,0-3.141H38.636v-.23A2.915,2.915,0,0,0,35.725,94h-3.6a2.915,2.915,0,0,0-2.912,2.912v.23H25.735a3.776,3.776,0,0,0-3.772,3.771v3.767h-9.9a7.9,7.9,0,0,0-7.887,7.886v22.076a1.571,1.571,0,0,0,3.141,0V112.566a4.751,4.751,0,0,1,4.745-4.745h9.9v5.235H14.127a1.57,1.57,0,0,0-1.571,1.571v39.336a4.751,4.751,0,0,1-4.745,4.745H3.141v-5.235H5.751A1.57,1.57,0,0,0,7.321,151.9V141.343a1.571,1.571,0,0,0-3.141,0v8.989H1.571A1.57,1.57,0,0,0,0,151.9v8.376a1.57,1.57,0,0,0,1.571,1.571H7.811a7.9,7.9,0,0,0,7.886-7.886V116.2h6.265V134.2a3.776,3.776,0,0,0,3.772,3.771h3.478v.23a2.915,2.915,0,0,0,2.912,2.912h3.6a2.915,2.915,0,0,0,2.912-2.912v-.23H74.551v.23a2.915,2.915,0,0,0,2.912,2.912h3.6a2.915,2.915,0,0,0,2.912-2.912v-.23h3.558A3.776,3.776,0,0,0,91.3,134.2v-6.28a1.571,1.571,0,0,0-3.141,0v6.28a.631.631,0,0,1-.63.63H83.974V100.282h3.558a.631.631,0,0,1,.63.63v20.306a1.571,1.571,0,0,0,3.141,0v-1.674h13.8a2.119,2.119,0,0,0,2.116-2.116V107.211a2.119,2.119,0,0,0-2.116-2.117ZM25.735,134.835a.631.631,0,0,1-.63-.63V114.647c0-.007,0-.013,0-.02V106.25c0-.007,0-.013,0-.02v-5.317a.631.631,0,0,1,.63-.63h3.478v34.553Zm9.761,3.141H32.354V97.141H35.5Zm45.338,0H77.692V97.141h3.141ZM104.078,116.4H91.3v-8.167h12.774Z" transform="translate(0 -94)" fill="#80c2db"/>
  </g>
</svg>
